<svg width="200" height="28" viewBox="0 0 200 28" fill="none" xmlns="http://www.w3.org/2000/svg">
<path d="M9.16 28C6.10667 28 3.84667 27.2733 2.38 25.82C0.926667 24.3533 0.2 22.0933 0.2 19.04V9.8C0.2 6.72 0.933334 4.46 2.4 3.02C3.86667 1.56667 6.12 0.853332 9.16 0.879999H13.96C17.0267 0.879999 19.2867 1.60667 20.74 3.06C22.1933 4.51333 22.92 6.77333 22.92 9.84V19.04C22.92 22.0933 22.1933 24.3533 20.74 25.82C19.2867 27.2733 17.0267 28 13.96 28H9.16ZM9.16 24.64H13.96C15.3867 24.64 16.5067 24.4733 17.32 24.14C18.1333 23.7933 18.7067 23.2133 19.04 22.4C19.3867 21.5867 19.56 20.4667 19.56 19.04V9.84C19.56 8.42667 19.3867 7.31333 19.04 6.5C18.7067 5.68667 18.1333 5.10667 17.32 4.76C16.5067 4.41333 15.3867 4.24 13.96 4.24H9.16C7.74667 4.22667 6.63333 4.38667 5.82 4.72C5.00667 5.05333 4.42667 5.62667 4.08 6.44C3.73333 7.25333 3.56 8.37333 3.56 9.8V19.04C3.56 20.4667 3.72667 21.5867 4.06 22.4C4.40667 23.2133 4.98667 23.7933 5.8 24.14C6.61333 24.4733 7.73333 24.64 9.16 24.64ZM31.9416 28C30.8216 28 30.2616 27.44 30.2616 26.32V2.56C30.2616 1.44 30.8216 0.879999 31.9416 0.879999C32.6749 0.879999 33.2882 1.24 33.7816 1.96L43.2216 16.16L42.5016 16.28L52.0216 1.96C52.4749 1.24 53.1549 0.879999 54.0616 0.879999C54.9682 0.879999 55.4216 1.44 55.4216 2.56V26.32C55.4216 27.44 54.8616 28 53.7416 28C52.6216 28 52.0616 27.44 52.0616 26.32V5.92L53.1016 6.28L44.7016 18.64C44.2082 19.36 43.5282 19.72 42.6616 19.72C42.0616 19.72 41.5149 19.36 41.0216 18.64L32.6216 6.28L33.6216 6.56V26.32C33.6216 27.44 33.0616 28 31.9416 28ZM65.4181 28C64.8448 28 64.4181 27.8667 64.1381 27.6C63.8715 27.32 63.7381 26.8933 63.7381 26.32V2.6C63.7381 2.01333 63.8715 1.58667 64.1381 1.32C64.4181 1.05333 64.8448 0.919998 65.4181 0.919998C66.0048 0.919998 66.4315 1.05333 66.6981 1.32C66.9648 1.58667 67.0981 2.01333 67.0981 2.6V26.32C67.0981 26.8933 66.9648 27.32 66.6981 27.6C66.4315 27.8667 66.0048 28 65.4181 28ZM77.0978 28C75.9778 28 75.4178 27.44 75.4178 26.32V2.56C75.4178 1.44 75.9778 0.879999 77.0978 0.879999C77.6711 0.879999 78.2311 1.21333 78.7778 1.88L94.8578 22.6H94.0178V2.56C94.0178 1.44 94.5778 0.879999 95.6978 0.879999C96.8178 0.879999 97.3778 1.44 97.3778 2.56V26.32C97.3778 27.44 96.8178 28 95.6978 28C95.0978 28 94.5378 27.6667 94.0178 27L77.9378 6.28H78.7778V26.32C78.7778 27.44 78.2178 28 77.0978 28Z" fill="#1B9C6A"/>
<path d="M113.811 28C113.251 28 112.831 27.86 112.551 27.58C112.271 27.3 112.131 26.88 112.131 26.32V4.28H104.371C103.811 4.28 103.391 4.14 103.111 3.86C102.831 3.58 102.691 3.16 102.691 2.6C102.691 2.04 102.831 1.62 103.111 1.34C103.391 1.06 103.811 0.919998 104.371 0.919998H123.251C123.811 0.919998 124.231 1.06 124.511 1.34C124.791 1.62 124.931 2.04 124.931 2.6C124.931 3.16 124.791 3.58 124.511 3.86C124.231 4.14 123.811 4.28 123.251 4.28H115.491V26.32C115.491 26.8533 115.345 27.2667 115.051 27.56C114.771 27.8533 114.358 28 113.811 28ZM131.942 28C130.822 28 130.262 27.44 130.262 26.32V2.56C130.262 1.44 130.822 0.879999 131.942 0.879999H146.302C147.422 0.879999 147.982 1.44 147.982 2.56C147.982 3.68 147.422 4.24 146.302 4.24H133.622V12.64H141.582C142.702 12.64 143.262 13.2 143.262 14.32C143.262 15.44 142.702 16 141.582 16H133.622V24.64H146.302C147.422 24.64 147.982 25.2 147.982 26.32C147.982 27.44 147.422 28 146.302 28H131.942ZM161.143 28C158.863 28 157.083 27.54 155.803 26.62C154.536 25.7 153.743 24.28 153.423 22.36C153.37 21.7733 153.49 21.3333 153.783 21.04C154.076 20.7467 154.503 20.6 155.063 20.6C155.623 20.6 156.03 20.7333 156.283 21C156.55 21.2667 156.73 21.68 156.823 22.24C157.023 23.16 157.45 23.7933 158.103 24.14C158.77 24.4733 159.783 24.64 161.143 24.64H166.903C168.623 24.64 169.79 24.3333 170.403 23.72C171.03 23.0933 171.343 21.9333 171.343 20.24C171.343 18.52 171.023 17.3467 170.383 16.72C169.743 16.08 168.583 15.76 166.903 15.76H161.943C159.423 15.76 157.55 15.1467 156.323 13.92C155.11 12.68 154.503 10.8 154.503 8.28C154.503 5.77333 155.103 3.91333 156.303 2.7C157.516 1.48667 159.383 0.879999 161.903 0.879999H166.663C168.783 0.879999 170.443 1.31333 171.643 2.18C172.856 3.04667 173.623 4.37333 173.943 6.16C174.023 6.73333 173.916 7.17333 173.623 7.48C173.33 7.77333 172.89 7.92 172.303 7.92C171.77 7.92 171.37 7.78 171.103 7.5C170.836 7.22 170.663 6.81333 170.583 6.28C170.37 5.49333 169.963 4.96 169.363 4.68C168.763 4.38667 167.863 4.24 166.663 4.24H161.903C160.303 4.24 159.23 4.52666 158.683 5.1C158.136 5.66 157.863 6.72 157.863 8.28C157.863 9.85333 158.143 10.9333 158.703 11.52C159.263 12.1067 160.343 12.4 161.943 12.4H166.903C169.53 12.4 171.483 13.04 172.763 14.32C174.056 15.6 174.703 17.5733 174.703 20.24C174.703 22.8933 174.063 24.8533 172.783 26.12C171.503 27.3733 169.543 28 166.903 28H161.143ZM188.186 28C187.626 28 187.206 27.86 186.926 27.58C186.646 27.3 186.506 26.88 186.506 26.32V4.28H178.746C178.186 4.28 177.766 4.14 177.486 3.86C177.206 3.58 177.066 3.16 177.066 2.6C177.066 2.04 177.206 1.62 177.486 1.34C177.766 1.06 178.186 0.919998 178.746 0.919998H197.626C198.186 0.919998 198.606 1.06 198.886 1.34C199.166 1.62 199.306 2.04 199.306 2.6C199.306 3.16 199.166 3.58 198.886 3.86C198.606 4.14 198.186 4.28 197.626 4.28H189.866V26.32C189.866 26.8533 189.72 27.2667 189.426 27.56C189.146 27.8533 188.733 28 188.186 28Z" fill="#1B1B1B"/>
</svg>
