<svg width="12" height="12" viewBox="0 0 12 12"  xmlns="http://www.w3.org/2000/svg">
<g clip-path="url(#clip0_136_426)">
<g clip-path="url(#clip1_136_426)">
<path d="M6.66295 6.00026L11.8627 0.800475C12.0458 0.617405 12.0458 0.320593 11.8627 0.137547C11.6796 -0.0454999 11.3828 -0.0455234 11.1998 0.137547L5.99999 5.33733L0.800231 0.137547C0.617161 -0.0455234 0.320349 -0.0455234 0.137302 0.137547C-0.0457441 0.320617 -0.0457675 0.617428 0.137302 0.800475L5.33707 6.00024L0.137302 11.2C-0.0457675 11.3831 -0.0457675 11.6799 0.137302 11.863C0.180786 11.9065 0.232456 11.9411 0.289341 11.9647C0.346227 11.9882 0.407208 12.0003 0.468778 12.0002C0.530349 12.0003 0.591329 11.9882 0.648214 11.9647C0.705099 11.9411 0.756769 11.9065 0.800254 11.863L5.99999 6.66319L11.1998 11.863C11.2913 11.9545 11.4113 12.0002 11.5312 12.0002C11.6512 12.0002 11.7712 11.9545 11.8627 11.863C12.0458 11.6799 12.0458 11.3831 11.8627 11.2L6.66295 6.00026Z" />
</g>
</g>
<defs>
<clipPath id="clip0_136_426">
<rect width="12" height="12" fill="white"/>
</clipPath>
<clipPath id="clip1_136_426">
<rect width="12" height="12" fill="white"/>
</clipPath>
</defs>
</svg>
