<svg width="20" height="21" viewBox="0 0 20 21" fill="none" xmlns="http://www.w3.org/2000/svg">
<g clip-path="url(#clip0_37_11657)">
<g clip-path="url(#clip1_37_11657)">
<path d="M18.9583 20.2917H12.5833C12.125 20.2917 11.75 19.9167 11.75 19.4583V15.5C11.75 14.5 10.9583 13.7083 9.95834 13.7083C8.95834 13.7083 8.16668 14.5 8.16668 15.5V19.4583C8.16668 19.9167 7.79168 20.2917 7.33334 20.2917H1.04168C0.583344 20.2917 0.208344 19.9167 0.208344 19.4583V8.79167C0.208344 8.04167 0.583344 7.33333 1.16668 6.91667L9.54168 0.875C9.83334 0.666667 10.2083 0.666667 10.5 0.875L18.875 6.91667C19.4583 7.33333 19.8333 8.04167 19.8333 8.79167V19.5C19.7917 19.9167 19.4167 20.2917 18.9583 20.2917ZM13.4167 18.6667H18.1667V8.79167C18.1667 8.58333 18.0417 8.375 17.875 8.25L10 2.54167L2.12501 8.20833C1.95834 8.33333 1.83334 8.54167 1.83334 8.75V18.625H6.58334V15.5C6.58334 13.625 8.12501 12.0833 10 12.0833C11.875 12.0833 13.4167 13.625 13.4167 15.5V18.6667Z" fill="#343735"/>
</g>
</g>
<defs>
<clipPath id="clip0_37_11657">
<rect width="20" height="20" fill="white" transform="translate(0 0.5)"/>
</clipPath>
<clipPath id="clip1_37_11657">
<rect width="20" height="20" fill="white" transform="translate(0 0.5)"/>
</clipPath>
</defs>
</svg>
