<svg width="12" height="13" viewBox="0 0 12 13"  xmlns="http://www.w3.org/2000/svg">
<g clip-path="url(#clip0_16_210)">
<path d="M11.5162 3.23376L9.26625 0.983756C9.23121 0.949001 9.18965 0.921504 9.14397 0.902842C9.09828 0.88418 9.04935 0.874721 9 0.875006H1.5C1.20163 0.875006 0.915483 0.993533 0.704505 1.20451C0.493526 1.41549 0.375 1.70164 0.375 2.00001V11C0.375 11.2984 0.493526 11.5845 0.704505 11.7955C0.915483 12.0065 1.20163 12.125 1.5 12.125H10.5C10.7984 12.125 11.0845 12.0065 11.2955 11.7955C11.5065 11.5845 11.625 11.2984 11.625 11V3.50001C11.6253 3.45065 11.6158 3.40173 11.5972 3.35604C11.5785 3.31035 11.551 3.2688 11.5162 3.23376ZM7.5 1.62501V3.87501H4.5V1.62501H7.5ZM3 11.375V8.75001C3 8.65055 3.03951 8.55517 3.10984 8.48484C3.18016 8.41451 3.27554 8.37501 3.375 8.37501H8.625C8.72446 8.37501 8.81984 8.41451 8.89017 8.48484C8.96049 8.55517 9 8.65055 9 8.75001V11.375H3ZM10.875 11C10.875 11.0995 10.8355 11.1948 10.7652 11.2652C10.6948 11.3355 10.5995 11.375 10.5 11.375H9.75V8.75001C9.75 8.45164 9.63147 8.16549 9.4205 7.95451C9.20952 7.74353 8.92337 7.62501 8.625 7.62501H3.375C3.07663 7.62501 2.79048 7.74353 2.5795 7.95451C2.36853 8.16549 2.25 8.45164 2.25 8.75001V11.375H1.5C1.40054 11.375 1.30516 11.3355 1.23483 11.2652C1.16451 11.1948 1.125 11.0995 1.125 11V2.00001C1.125 1.90055 1.16451 1.80517 1.23483 1.73484C1.30516 1.66452 1.40054 1.62501 1.5 1.62501H3.75V3.87501C3.75 4.07392 3.82902 4.26468 3.96967 4.40534C4.11032 4.54599 4.30109 4.62501 4.5 4.62501H7.5C7.69891 4.62501 7.88968 4.54599 8.03033 4.40534C8.17098 4.26468 8.25 4.07392 8.25 3.87501V1.62501H8.84625L10.875 3.65376V11Z" />
</g>
<defs>
<clipPath id="clip0_16_210">
<rect width="12" height="12" fill="white" transform="translate(0 0.5)"/>
</clipPath>
</defs>
</svg>
