<svg width="15" height="15" viewBox="0 0 15 15" fill="none" xmlns="http://www.w3.org/2000/svg">
<g clip-path="url(#clip0_37_3015)">
<g clip-path="url(#clip1_37_3015)">
<path d="M14.858 14.1839L10.9852 10.3731C11.9994 9.27122 12.6225 7.81401 12.6225 6.21051C12.622 2.78032 9.79666 0 6.31116 0C2.82565 0 0.000305176 2.78032 0.000305176 6.21051C0.000305176 9.6407 2.82565 12.421 6.31116 12.421C7.81714 12.421 9.19839 11.9001 10.2833 11.0341L14.1711 14.86C14.3606 15.0466 14.6681 15.0466 14.8575 14.86C14.9026 14.816 14.9384 14.7635 14.9629 14.7054C14.9873 14.6474 15 14.5851 15 14.5221C15 14.4591 14.9875 14.3967 14.9631 14.3387C14.9387 14.2806 14.903 14.228 14.858 14.1839ZM6.31116 11.4655C3.36204 11.4655 0.971319 9.11277 0.971319 6.21051C0.971319 3.30825 3.36204 0.955524 6.31116 0.955524C9.2603 0.955524 11.651 3.30825 11.651 6.21051C11.651 9.11277 9.2603 11.4655 6.31116 11.4655Z" fill="#1B1B1B"/>
</g>
</g>
<defs>
<clipPath id="clip0_37_3015">
<rect width="15" height="15" fill="white"/>
</clipPath>
<clipPath id="clip1_37_3015">
<rect width="15" height="15" fill="white"/>
</clipPath>
</defs>
</svg>
